<?xml version="1.0" encoding="UTF-8" standalone="no" ?>
<!DOCTYPE svg PUBLIC "-//W3C//DTD SVG 1.1//EN" "http://www.w3.org/Graphics/SVG/1.1/DTD/svg11.dtd">
<svg xmlns="http://www.w3.org/2000/svg" xmlns:xlink="http://www.w3.org/1999/xlink" version="1.1" width="25" height="25" viewBox="0 0 640 640" xml:space="preserve">
<desc>Created with Fabric.js 4.6.0</desc>
<defs>
</defs>
<g transform="matrix(1 0 0 1 320 320)" id="fchIaunXvAH_r8YSDdKjU"  >
<linearGradient id="SVGID_196" gradientUnits="userSpaceOnUse" gradientTransform="matrix(1 0 0 1 0 42.15)"  x1="256" y1="-0.5000000000000284" x2="256" y2="438.34767065521544">
<stop offset="0%" style="stop-color:#FF79DA;stop-opacity: 1"/>
<stop offset="50%" style="stop-color:#9356DC;stop-opacity: 1"/>
<stop offset="100%" style="stop-color:#9356DC;stop-opacity: 1"/>
</linearGradient>
<path style="stroke: none; stroke-width: 1; stroke-dasharray: none; stroke-linecap: butt; stroke-dashoffset: 0; stroke-linejoin: miter; stroke-miterlimit: 4; fill: url(#SVGID_196); fill-rule: nonzero; opacity: 1;" vector-effect="non-scaling-stroke"  transform=" translate(-256, -261.08)" d="M 0 190.9 L 0 185.1 C 0 115.2 50.52 55.58 119.4 44.1 C 164.1 36.51 211.4 51.37 244 84.02 L 256 96 L 267.1 84.02 C 300.6 51.37 347 36.51 392.6 44.1 C 461.5 55.58 512 115.2 512 185.1 L 512 190.9 C 512 232.4 494.8 272.1 464.4 300.4 L 283.7 469.1 C 276.2 476.1 266.3 480 256 480 C 245.7 480 235.8 476.1 228.3 469.1 L 47.59 300.4 C 17.23 272.1 0.0003 232.4 0.0003 190.9 L 0 190.9 z" stroke-linecap="round" />
</g>
</svg>